solid
  facet normal +9.9879545E-01 +4.9067674E-02 +0.0000000E+00
    outer loop
      vertex   +2.5000000E+01 +5.0000000E+01 +5.0000000E+01
      vertex   +2.5120381E+01 +4.7549571E+01 +5.0000000E+01
      vertex   +2.5000000E+01 +5.0000000E+01 +0.0000000E+00
    endloop
  endfacet
  facet normal +9.9879545E-01 +4.9067674E-02 +0.0000000E+00
    outer loop
      vertex   +2.5120381E+01 +4.7549571E+01 +5.0000000E+01
      vertex   +2.5120381E+01 +4.7549571E+01 +0.0000000E+00
      vertex   +2.5000000E+01 +5.0000000E+01 +0.0000000E+00
    endloop
  endfacet
  facet normal +9.8917650E-01 +1.4673047E-01 +0.0000000E+00
    outer loop
      vertex   +2.5120381E+01 +4.7549571E+01 +5.0000000E+01
      vertex   +2.5480367E+01 +4.5122741E+01 +5.0000000E+01
      vertex   +2.5120381E+01 +4.7549571E+01 +0.0000000E+00
    endloop
  endfacet
  facet normal +9.8917650E-01 +1.4673047E-01 +0.0000000E+00
    outer loop
      vertex   +2.5480367E+01 +4.5122741E+01 +5.0000000E+01
      vertex   +2.5480367E+01 +4.5122741E+01 +0.0000000E+00
      vertex   +2.5120381E+01 +4.7549571E+01 +0.0000000E+00
    endloop
  endfacet
  facet normal +9.7003125E-01 +2.4298017E-01 +0.0000000E+00
    outer loop
      vertex   +2.5480367E+01 +4.5122741E+01 +5.0000000E+01
      vertex   +2.6076491E+01 +4.2742883E+01 +5.0000000E+01
      vertex   +2.5480367E+01 +4.5122741E+01 +0.0000000E+00
    endloop
  endfacet
  facet normal +9.7003125E-01 +2.4298017E-01 +0.0000000E+00
    outer loop
      vertex   +2.6076491E+01 +4.2742883E+01 +5.0000000E+01
      vertex   +2.6076491E+01 +4.2742883E+01 +0.0000000E+00
      vertex   +2.5480367E+01 +4.5122741E+01 +0.0000000E+00
    endloop
  endfacet
  facet normal +9.4154406E-01 +3.3688985E-01 +0.0000000E+00
    outer loop
      vertex   +2.6076491E+01 +4.2742883E+01 +5.0000000E+01
      vertex   +2.6903011E+01 +4.0432914E+01 +5.0000000E+01
      vertex   +2.6076491E+01 +4.2742883E+01 +0.0000000E+00
    endloop
  endfacet
  facet normal +9.4154406E-01 +3.3688985E-01 +0.0000000E+00
    outer loop
      vertex   +2.6903011E+01 +4.0432914E+01 +5.0000000E+01
      vertex   +2.6903011E+01 +4.0432914E+01 +0.0000000E+00
      vertex   +2.6076491E+01 +4.2742883E+01 +0.0000000E+00
    endloop
  endfacet
  facet normal +9.0398929E-01 +4.2755509E-01 +0.0000000E+00
    outer loop
      vertex   +2.6903011E+01 +4.0432914E+01 +5.0000000E+01
      vertex   +2.7951968E+01 +3.8215081E+01 +5.0000000E+01
      vertex   +2.6903011E+01 +4.0432914E+01 +0.0000000E+00
    endloop
  endfacet
  facet normal +9.0398929E-01 +4.2755509E-01 +0.0000000E+00
    outer loop
      vertex   +2.7951968E+01 +3.8215081E+01 +5.0000000E+01
      vertex   +2.7951968E+01 +3.8215081E+01 +0.0000000E+00
      vertex   +2.6903011E+01 +4.0432914E+01 +0.0000000E+00
    endloop
  endfacet
  facet normal +8.5772861E-01 +5.1410274E-01 +0.0000000E+00
    outer loop
      vertex   +2.7951968E+01 +3.8215081E+01 +5.0000000E+01
      vertex   +2.9213259E+01 +3.6110744E+01 +5.0000000E+01
      vertex   +2.7951968E+01 +3.8215081E+01 +0.0000000E+00
    endloop
  endfacet
  facet normal +8.5772861E-01 +5.1410274E-01 +0.0000000E+00
    outer loop
      vertex   +2.9213259E+01 +3.6110744E+01 +5.0000000E+01
      vertex   +2.9213259E+01 +3.6110744E+01 +0.0000000E+00
      vertex   +2.7951968E+01 +3.8215081E+01 +0.0000000E+00
    endloop
  endfacet
  facet normal +8.0320753E-01 +5.9569930E-01 +0.0000000E+00
    outer loop
      vertex   +2.9213259E+01 +3.6110744E+01 +5.0000000E+01
      vertex   +3.0674738E+01 +3.4140167E+01 +5.0000000E+01
      vertex   +2.9213259E+01 +3.6110744E+01 +0.0000000E+00
    endloop
  endfacet
  facet normal +8.0320753E-01 +5.9569930E-01 +0.0000000E+00
    outer loop
      vertex   +3.0674738E+01 +3.4140167E+01 +5.0000000E+01
      vertex   +3.0674738E+01 +3.4140167E+01 +0.0000000E+00
      vertex   +2.9213259E+01 +3.6110744E+01 +0.0000000E+00
    endloop
  endfacet
  facet normal +7.4095112E-01 +6.7155895E-01 +0.0000000E+00
    outer loop
      vertex   +3.0674738E+01 +3.4140167E+01 +5.0000000E+01
      vertex   +3.2322330E+01 +3.2322330E+01 +5.0000000E+01
      vertex   +3.0674738E+01 +3.4140167E+01 +0.0000000E+00
    endloop
  endfacet
  facet normal +7.4095112E-01 +6.7155895E-01 +0.0000000E+00
    outer loop
      vertex   +3.2322330E+01 +3.2322330E+01 +5.0000000E+01
      vertex   +3.2322330E+01 +3.2322330E+01 +0.0000000E+00
      vertex   +3.0674738E+01 +3.4140167E+01 +0.0000000E+00
    endloop
  endfacet
  facet normal +6.7155895E-01 +7.4095112E-01 +0.0000000E+00
    outer loop
      vertex   +3.2322330E+01 +3.2322330E+01 +5.0000000E+01
      vertex   +3.4140167E+01 +3.0674738E+01 +5.0000000E+01
      vertex   +3.2322330E+01 +3.2322330E+01 +0.0000000E+00
    endloop
  endfacet
  facet normal +6.7155895E-01 +7.4095112E-01 +0.0000000E+00
    outer loop
      vertex   +3.4140167E+01 +3.0674738E+01 +5.0000000E+01
      vertex   +3.4140167E+01 +3.0674738E+01 +0.0000000E+00
      vertex   +3.2322330E+01 +3.2322330E+01 +0.0000000E+00
    endloop
  endfacet
  facet normal +5.9569930E-01 +8.0320753E-01 +0.0000000E+00
    outer loop
      vertex   +3.4140167E+01 +3.0674738E+01 +5.0000000E+01
      vertex   +3.6110744E+01 +2.9213259E+01 +5.0000000E+01
      vertex   +3.4140167E+01 +3.0674738E+01 +0.0000000E+00
    endloop
  endfacet
  facet normal +5.9569930E-01 +8.0320753E-01 +0.0000000E+00
    outer loop
      vertex   +3.6110744E+01 +2.9213259E+01 +5.0000000E+01
      vertex   +3.6110744E+01 +2.9213259E+01 +0.0000000E+00
      vertex   +3.4140167E+01 +3.0674738E+01 +0.0000000E+00
    endloop
  endfacet
  facet normal +5.1410274E-01 +8.5772861E-01 +0.0000000E+00
    outer loop
      vertex   +3.6110744E+01 +2.9213259E+01 +5.0000000E+01
      vertex   +3.8215081E+01 +2.7951968E+01 +5.0000000E+01
      vertex   +3.6110744E+01 +2.9213259E+01 +0.0000000E+00
    endloop
  endfacet
  facet normal +5.1410274E-01 +8.5772861E-01 +0.0000000E+00
    outer loop
      vertex   +3.8215081E+01 +2.7951968E+01 +5.0000000E+01
      vertex   +3.8215081E+01 +2.7951968E+01 +0.0000000E+00
      vertex   +3.6110744E+01 +2.9213259E+01 +0.0000000E+00
    endloop
  endfacet
  facet normal +4.2755509E-01 +9.0398929E-01 +0.0000000E+00
    outer loop
      vertex   +3.8215081E+01 +2.7951968E+01 +5.0000000E+01
      vertex   +4.0432914E+01 +2.6903011E+01 +5.0000000E+01
      vertex   +3.8215081E+01 +2.7951968E+01 +0.0000000E+00
    endloop
  endfacet
  facet normal +4.2755509E-01 +9.0398929E-01 +0.0000000E+00
    outer loop
      vertex   +4.0432914E+01 +2.6903011E+01 +5.0000000E+01
      vertex   +4.0432914E+01 +2.6903011E+01 +0.0000000E+00
      vertex   +3.8215081E+01 +2.7951968E+01 +0.0000000E+00
    endloop
  endfacet
  facet normal +3.3688985E-01 +9.4154406E-01 +0.0000000E+00
    outer loop
      vertex   +4.0432914E+01 +2.6903011E+01 +5.0000000E+01
      vertex   +4.2742883E+01 +2.6076491E+01 +5.0000000E+01
      vertex   +4.0432914E+01 +2.6903011E+01 +0.0000000E+00
    endloop
  endfacet
  facet normal +3.3688985E-01 +9.4154406E-01 +0.0000000E+00
    outer loop
      vertex   +4.2742883E+01 +2.6076491E+01 +5.0000000E+01
      vertex   +4.2742883E+01 +2.6076491E+01 +0.0000000E+00
      vertex   +4.0432914E+01 +2.6903011E+01 +0.0000000E+00
    endloop
  endfacet
  facet normal +2.4298017E-01 +9.7003125E-01 +0.0000000E+00
    outer loop
      vertex   +4.2742883E+01 +2.6076491E+01 +5.0000000E+01
      vertex   +4.5122741E+01 +2.5480367E+01 +5.0000000E+01
      vertex   +4.2742883E+01 +2.6076491E+01 +0.0000000E+00
    endloop
  endfacet
  facet normal +2.4298017E-01 +9.7003125E-01 +0.0000000E+00
    outer loop
      vertex   +4.5122741E+01 +2.5480367E+01 +5.0000000E+01
      vertex   +4.5122741E+01 +2.5480367E+01 +0.0000000E+00
      vertex   +4.2742883E+01 +2.6076491E+01 +0.0000000E+00
    endloop
  endfacet
  facet normal +1.4673047E-01 +9.8917650E-01 +0.0000000E+00
    outer loop
      vertex   +4.5122741E+01 +2.5480367E+01 +5.0000000E+01
      vertex   +4.7549571E+01 +2.5120381E+01 +5.0000000E+01
      vertex   +4.5122741E+01 +2.5480367E+01 +0.0000000E+00
    endloop
  endfacet
  facet normal +1.4673047E-01 +9.8917650E-01 +0.0000000E+00
    outer loop
      vertex   +4.7549571E+01 +2.5120381E+01 +5.0000000E+01
      vertex   +4.7549571E+01 +2.5120381E+01 +0.0000000E+00
      vertex   +4.5122741E+01 +2.5480367E+01 +0.0000000E+00
    endloop
  endfacet
  facet normal +4.9067674E-02 +9.9879545E-01 +0.0000000E+00
    outer loop
      vertex   +4.7549571E+01 +2.5120381E+01 +5.0000000E+01
      vertex   +5.0000000E+01 +2.5000000E+01 +5.0000000E+01
      vertex   +4.7549571E+01 +2.5120381E+01 +0.0000000E+00
    endloop
  endfacet
  facet normal +4.9067674E-02 +9.9879545E-01 +0.0000000E+00
    outer loop
      vertex   +5.0000000E+01 +2.5000000E+01 +5.0000000E+01
      vertex   +5.0000000E+01 +2.5000000E+01 +0.0000000E+00
      vertex   +4.7549571E+01 +2.5120381E+01 +0.0000000E+00
    endloop
  endfacet
  facet normal -4.9067674E-02 +9.9879545E-01 +0.0000000E+00
    outer loop
      vertex   +5.0000000E+01 +2.5000000E+01 +5.0000000E+01
      vertex   +5.2450428E+01 +2.5120381E+01 +5.0000000E+01
      vertex   +5.0000000E+01 +2.5000000E+01 +0.0000000E+00
    endloop
  endfacet
  facet normal -4.9067674E-02 +9.9879545E-01 +0.0000000E+00
    outer loop
      vertex   +5.2450428E+01 +2.5120381E+01 +5.0000000E+01
      vertex   +5.2450428E+01 +2.5120381E+01 +0.0000000E+00
      vertex   +5.0000000E+01 +2.5000000E+01 +0.0000000E+00
    endloop
  endfacet
  facet normal -1.4673047E-01 +9.8917650E-01 +0.0000000E+00
    outer loop
      vertex   +5.2450428E+01 +2.5120381E+01 +5.0000000E+01
      vertex   +5.4877258E+01 +2.5480367E+01 +5.0000000E+01
      vertex   +5.2450428E+01 +2.5120381E+01 +0.0000000E+00
    endloop
  endfacet
  facet normal -1.4673047E-01 +9.8917650E-01 +0.0000000E+00
    outer loop
      vertex   +5.4877258E+01 +2.5480367E+01 +5.0000000E+01
      vertex   +5.4877258E+01 +2.5480367E+01 +0.0000000E+00
      vertex   +5.2450428E+01 +2.5120381E+01 +0.0000000E+00
    endloop
  endfacet
  facet normal -2.4298017E-01 +9.7003125E-01 +0.0000000E+00
    outer loop
      vertex   +5.4877258E+01 +2.5480367E+01 +5.0000000E+01
      vertex   +5.7257116E+01 +2.6076491E+01 +5.0000000E+01
      vertex   +5.4877258E+01 +2.5480367E+01 +0.0000000E+00
    endloop
  endfacet
  facet normal -2.4298017E-01 +9.7003125E-01 +0.0000000E+00
    outer loop
      vertex   +5.7257116E+01 +2.6076491E+01 +5.0000000E+01
      vertex   +5.7257116E+01 +2.6076491E+01 +0.0000000E+00
      vertex   +5.4877258E+01 +2.5480367E+01 +0.0000000E+00
    endloop
  endfacet
  facet normal -3.3688985E-01 +9.4154406E-01 +0.0000000E+00
    outer loop
      vertex   +5.7257116E+01 +2.6076491E+01 +5.0000000E+01
      vertex   +5.9567085E+01 +2.6903011E+01 +5.0000000E+01
      vertex   +5.7257116E+01 +2.6076491E+01 +0.0000000E+00
    endloop
  endfacet
  facet normal -3.3688985E-01 +9.4154406E-01 +0.0000000E+00
    outer loop
      vertex   +5.9567085E+01 +2.6903011E+01 +5.0000000E+01
      vertex   +5.9567085E+01 +2.6903011E+01 +0.0000000E+00
      vertex   +5.7257116E+01 +2.6076491E+01 +0.0000000E+00
    endloop
  endfacet
  facet normal -4.2755509E-01 +9.0398929E-01 +0.0000000E+00
    outer loop
      vertex   +5.9567085E+01 +2.6903011E+01 +5.0000000E+01
      vertex   +6.1784918E+01 +2.7951968E+01 +5.0000000E+01
      vertex   +5.9567085E+01 +2.6903011E+01 +0.0000000E+00
    endloop
  endfacet
  facet normal -4.2755509E-01 +9.0398929E-01 +0.0000000E+00
    outer loop
      vertex   +6.1784918E+01 +2.7951968E+01 +5.0000000E+01
      vertex   +6.1784918E+01 +2.7951968E+01 +0.0000000E+00
      vertex   +5.9567085E+01 +2.6903011E+01 +0.0000000E+00
    endloop
  endfacet
  facet normal -5.1410274E-01 +8.5772861E-01 +0.0000000E+00
    outer loop
      vertex   +6.1784918E+01 +2.7951968E+01 +5.0000000E+01
      vertex   +6.3889255E+01 +2.9213259E+01 +5.0000000E+01
      vertex   +6.1784918E+01 +2.7951968E+01 +0.0000000E+00
    endloop
  endfacet
  facet normal -5.1410274E-01 +8.5772861E-01 +0.0000000E+00
    outer loop
      vertex   +6.3889255E+01 +2.9213259E+01 +5.0000000E+01
      vertex   +6.3889255E+01 +2.9213259E+01 +0.0000000E+00
      vertex   +6.1784918E+01 +2.7951968E+01 +0.0000000E+00
    endloop
  endfacet
  facet normal -5.9569930E-01 +8.0320753E-01 +0.0000000E+00
    outer loop
      vertex   +6.3889255E+01 +2.9213259E+01 +5.0000000E+01
      vertex   +6.5859832E+01 +3.0674738E+01 +5.0000000E+01
      vertex   +6.3889255E+01 +2.9213259E+01 +0.0000000E+00
    endloop
  endfacet
  facet normal -5.9569930E-01 +8.0320753E-01 +0.0000000E+00
    outer loop
      vertex   +6.5859832E+01 +3.0674738E+01 +5.0000000E+01
      vertex   +6.5859832E+01 +3.0674738E+01 +0.0000000E+00
      vertex   +6.3889255E+01 +2.9213259E+01 +0.0000000E+00
    endloop
  endfacet
  facet normal -6.7155895E-01 +7.4095112E-01 +0.0000000E+00
    outer loop
      vertex   +6.5859832E+01 +3.0674738E+01 +5.0000000E+01
      vertex   +6.7677669E+01 +3.2322330E+01 +5.0000000E+01
      vertex   +6.5859832E+01 +3.0674738E+01 +0.0000000E+00
    endloop
  endfacet
  facet normal -6.7155895E-01 +7.4095112E-01 +0.0000000E+00
    outer loop
      vertex   +6.7677669E+01 +3.2322330E+01 +5.0000000E+01
      vertex   +6.7677669E+01 +3.2322330E+01 +0.0000000E+00
      vertex   +6.5859832E+01 +3.0674738E+01 +0.0000000E+00
    endloop
  endfacet
  facet normal -7.4095112E-01 +6.7155895E-01 +0.0000000E+00
    outer loop
      vertex   +6.7677669E+01 +3.2322330E+01 +5.0000000E+01
      vertex   +6.9325261E+01 +3.4140167E+01 +5.0000000E+01
      vertex   +6.7677669E+01 +3.2322330E+01 +0.0000000E+00
    endloop
  endfacet
  facet normal -7.4095112E-01 +6.7155895E-01 +0.0000000E+00
    outer loop
      vertex   +6.9325261E+01 +3.4140167E+01 +5.0000000E+01
      vertex   +6.9325261E+01 +3.4140167E+01 +0.0000000E+00
      vertex   +6.7677669E+01 +3.2322330E+01 +0.0000000E+00
    endloop
  endfacet
  facet normal -8.0320753E-01 +5.9569930E-01 +0.0000000E+00
    outer loop
      vertex   +6.9325261E+01 +3.4140167E+01 +5.0000000E+01
      vertex   +7.0786740E+01 +3.6110744E+01 +5.0000000E+01
      vertex   +6.9325261E+01 +3.4140167E+01 +0.0000000E+00
    endloop
  endfacet
  facet normal -8.0320753E-01 +5.9569930E-01 +0.0000000E+00
    outer loop
      vertex   +7.0786740E+01 +3.6110744E+01 +5.0000000E+01
      vertex   +7.0786740E+01 +3.6110744E+01 +0.0000000E+00
      vertex   +6.9325261E+01 +3.4140167E+01 +0.0000000E+00
    endloop
  endfacet
  facet normal -8.5772861E-01 +5.1410274E-01 +0.0000000E+00
    outer loop
      vertex   +7.0786740E+01 +3.6110744E+01 +5.0000000E+01
      vertex   +7.2048031E+01 +3.8215081E+01 +5.0000000E+01
      vertex   +7.0786740E+01 +3.6110744E+01 +0.0000000E+00
    endloop
  endfacet
  facet normal -8.5772861E-01 +5.1410274E-01 +0.0000000E+00
    outer loop
      vertex   +7.2048031E+01 +3.8215081E+01 +5.0000000E+01
      vertex   +7.2048031E+01 +3.8215081E+01 +0.0000000E+00
      vertex   +7.0786740E+01 +3.6110744E+01 +0.0000000E+00
    endloop
  endfacet
  facet normal -9.0398929E-01 +4.2755509E-01 +0.0000000E+00
    outer loop
      vertex   +7.2048031E+01 +3.8215081E+01 +5.0000000E+01
      vertex   +7.3096988E+01 +4.0432914E+01 +5.0000000E+01
      vertex   +7.2048031E+01 +3.8215081E+01 +0.0000000E+00
    endloop
  endfacet
  facet normal -9.0398929E-01 +4.2755509E-01 +0.0000000E+00
    outer loop
      vertex   +7.3096988E+01 +4.0432914E+01 +5.0000000E+01
      vertex   +7.3096988E+01 +4.0432914E+01 +0.0000000E+00
      vertex   +7.2048031E+01 +3.8215081E+01 +0.0000000E+00
    endloop
  endfacet
  facet normal -9.4154406E-01 +3.3688985E-01 +0.0000000E+00
    outer loop
      vertex   +7.3096988E+01 +4.0432914E+01 +5.0000000E+01
      vertex   +7.3923508E+01 +4.2742883E+01 +5.0000000E+01
      vertex   +7.3096988E+01 +4.0432914E+01 +0.0000000E+00
    endloop
  endfacet
  facet normal -9.4154406E-01 +3.3688985E-01 +0.0000000E+00
    outer loop
      vertex   +7.3923508E+01 +4.2742883E+01 +5.0000000E+01
      vertex   +7.3923508E+01 +4.2742883E+01 +0.0000000E+00
      vertex   +7.3096988E+01 +4.0432914E+01 +0.0000000E+00
    endloop
  endfacet
  facet normal -9.7003125E-01 +2.4298017E-01 +0.0000000E+00
    outer loop
      vertex   +7.3923508E+01 +4.2742883E+01 +5.0000000E+01
      vertex   +7.4519632E+01 +4.5122741E+01 +5.0000000E+01
      vertex   +7.3923508E+01 +4.2742883E+01 +0.0000000E+00
    endloop
  endfacet
  facet normal -9.7003125E-01 +2.4298017E-01 +0.0000000E+00
    outer loop
      vertex   +7.4519632E+01 +4.5122741E+01 +5.0000000E+01
      vertex   +7.4519632E+01 +4.5122741E+01 +0.0000000E+00
      vertex   +7.3923508E+01 +4.2742883E+01 +0.0000000E+00
    endloop
  endfacet
  facet normal -9.8917650E-01 +1.4673047E-01 +0.0000000E+00
    outer loop
      vertex   +7.4519632E+01 +4.5122741E+01 +5.0000000E+01
      vertex   +7.4879618E+01 +4.7549571E+01 +5.0000000E+01
      vertex   +7.4519632E+01 +4.5122741E+01 +0.0000000E+00
    endloop
  endfacet
  facet normal -9.8917650E-01 +1.4673047E-01 +0.0000000E+00
    outer loop
      vertex   +7.4879618E+01 +4.7549571E+01 +5.0000000E+01
      vertex   +7.4879618E+01 +4.7549571E+01 +0.0000000E+00
      vertex   +7.4519632E+01 +4.5122741E+01 +0.0000000E+00
    endloop
  endfacet
  facet normal -9.9879545E-01 +4.9067674E-02 +0.0000000E+00
    outer loop
      vertex   +7.4879618E+01 +4.7549571E+01 +5.0000000E+01
      vertex   +7.5000000E+01 +5.0000000E+01 +5.0000000E+01
      vertex   +7.4879618E+01 +4.7549571E+01 +0.0000000E+00
    endloop
  endfacet
  facet normal -9.9879545E-01 +4.9067674E-02 +0.0000000E+00
    outer loop
      vertex   +7.5000000E+01 +5.0000000E+01 +5.0000000E+01
      vertex   +7.5000000E+01 +5.0000000E+01 +0.0000000E+00
      vertex   +7.4879618E+01 +4.7549571E+01 +0.0000000E+00
    endloop
  endfacet
  facet normal -9.9879545E-01 -4.9067674E-02 +0.0000000E+00
    outer loop
      vertex   +7.5000000E+01 +5.0000000E+01 +5.0000000E+01
      vertex   +7.4879618E+01 +5.2450428E+01 +5.0000000E+01
      vertex   +7.5000000E+01 +5.0000000E+01 +0.0000000E+00
    endloop
  endfacet
  facet normal -9.9879545E-01 -4.9067674E-02 +0.0000000E+00
    outer loop
      vertex   +7.4879618E+01 +5.2450428E+01 +5.0000000E+01
      vertex   +7.4879618E+01 +5.2450428E+01 +0.0000000E+00
      vertex   +7.5000000E+01 +5.0000000E+01 +0.0000000E+00
    endloop
  endfacet
  facet normal -9.8917650E-01 -1.4673047E-01 +0.0000000E+00
    outer loop
      vertex   +7.4879618E+01 +5.2450428E+01 +5.0000000E+01
      vertex   +7.4519632E+01 +5.4877258E+01 +5.0000000E+01
      vertex   +7.4879618E+01 +5.2450428E+01 +0.0000000E+00
    endloop
  endfacet
  facet normal -9.8917650E-01 -1.4673047E-01 +0.0000000E+00
    outer loop
      vertex   +7.4519632E+01 +5.4877258E+01 +5.0000000E+01
      vertex   +7.4519632E+01 +5.4877258E+01 +0.0000000E+00
      vertex   +7.4879618E+01 +5.2450428E+01 +0.0000000E+00
    endloop
  endfacet
  facet normal -9.7003125E-01 -2.4298017E-01 +0.0000000E+00
    outer loop
      vertex   +7.4519632E+01 +5.4877258E+01 +5.0000000E+01
      vertex   +7.3923508E+01 +5.7257116E+01 +5.0000000E+01
      vertex   +7.4519632E+01 +5.4877258E+01 +0.0000000E+00
    endloop
  endfacet
  facet normal -9.7003125E-01 -2.4298017E-01 +0.0000000E+00
    outer loop
      vertex   +7.3923508E+01 +5.7257116E+01 +5.0000000E+01
      vertex   +7.3923508E+01 +5.7257116E+01 +0.0000000E+00
      vertex   +7.4519632E+01 +5.4877258E+01 +0.0000000E+00
    endloop
  endfacet
  facet normal -9.4154406E-01 -3.3688985E-01 +0.0000000E+00
    outer loop
      vertex   +7.3923508E+01 +5.7257116E+01 +5.0000000E+01
      vertex   +7.3096988E+01 +5.9567085E+01 +5.0000000E+01
      vertex   +7.3923508E+01 +5.7257116E+01 +0.0000000E+00
    endloop
  endfacet
  facet normal -9.4154406E-01 -3.3688985E-01 +0.0000000E+00
    outer loop
      vertex   +7.3096988E+01 +5.9567085E+01 +5.0000000E+01
      vertex   +7.3096988E+01 +5.9567085E+01 +0.0000000E+00
      vertex   +7.3923508E+01 +5.7257116E+01 +0.0000000E+00
    endloop
  endfacet
  facet normal -9.0398929E-01 -4.2755509E-01 +0.0000000E+00
    outer loop
      vertex   +7.3096988E+01 +5.9567085E+01 +5.0000000E+01
      vertex   +7.2048031E+01 +6.1784918E+01 +5.0000000E+01
      vertex   +7.3096988E+01 +5.9567085E+01 +0.0000000E+00
    endloop
  endfacet
  facet normal -9.0398929E-01 -4.2755509E-01 +0.0000000E+00
    outer loop
      vertex   +7.2048031E+01 +6.1784918E+01 +5.0000000E+01
      vertex   +7.2048031E+01 +6.1784918E+01 +0.0000000E+00
      vertex   +7.3096988E+01 +5.9567085E+01 +0.0000000E+00
    endloop
  endfacet
  facet normal -8.5772861E-01 -5.1410274E-01 +0.0000000E+00
    outer loop
      vertex   +7.2048031E+01 +6.1784918E+01 +5.0000000E+01
      vertex   +7.0786740E+01 +6.3889255E+01 +5.0000000E+01
      vertex   +7.2048031E+01 +6.1784918E+01 +0.0000000E+00
    endloop
  endfacet
  facet normal -8.5772861E-01 -5.1410274E-01 +0.0000000E+00
    outer loop
      vertex   +7.0786740E+01 +6.3889255E+01 +5.0000000E+01
      vertex   +7.0786740E+01 +6.3889255E+01 +0.0000000E+00
      vertex   +7.2048031E+01 +6.1784918E+01 +0.0000000E+00
    endloop
  endfacet
  facet normal -8.0320753E-01 -5.9569930E-01 +0.0000000E+00
    outer loop
      vertex   +7.0786740E+01 +6.3889255E+01 +5.0000000E+01
      vertex   +6.9325261E+01 +6.5859832E+01 +5.0000000E+01
      vertex   +7.0786740E+01 +6.3889255E+01 +0.0000000E+00
    endloop
  endfacet
  facet normal -8.0320753E-01 -5.9569930E-01 +0.0000000E+00
    outer loop
      vertex   +6.9325261E+01 +6.5859832E+01 +5.0000000E+01
      vertex   +6.9325261E+01 +6.5859832E+01 +0.0000000E+00
      vertex   +7.0786740E+01 +6.3889255E+01 +0.0000000E+00
    endloop
  endfacet
  facet normal -7.4095112E-01 -6.7155895E-01 +0.0000000E+00
    outer loop
      vertex   +6.9325261E+01 +6.5859832E+01 +5.0000000E+01
      vertex   +6.7677669E+01 +6.7677669E+01 +5.0000000E+01
      vertex   +6.9325261E+01 +6.5859832E+01 +0.0000000E+00
    endloop
  endfacet
  facet normal -7.4095112E-01 -6.7155895E-01 +0.0000000E+00
    outer loop
      vertex   +6.7677669E+01 +6.7677669E+01 +5.0000000E+01
      vertex   +6.7677669E+01 +6.7677669E+01 +0.0000000E+00
      vertex   +6.9325261E+01 +6.5859832E+01 +0.0000000E+00
    endloop
  endfacet
  facet normal -6.7155895E-01 -7.4095112E-01 +0.0000000E+00
    outer loop
      vertex   +6.7677669E+01 +6.7677669E+01 +5.0000000E+01
      vertex   +6.5859832E+01 +6.9325261E+01 +5.0000000E+01
      vertex   +6.7677669E+01 +6.7677669E+01 +0.0000000E+00
    endloop
  endfacet
  facet normal -6.7155895E-01 -7.4095112E-01 +0.0000000E+00
    outer loop
      vertex   +6.5859832E+01 +6.9325261E+01 +5.0000000E+01
      vertex   +6.5859832E+01 +6.9325261E+01 +0.0000000E+00
      vertex   +6.7677669E+01 +6.7677669E+01 +0.0000000E+00
    endloop
  endfacet
  facet normal -5.9569930E-01 -8.0320753E-01 +0.0000000E+00
    outer loop
      vertex   +6.5859832E+01 +6.9325261E+01 +5.0000000E+01
      vertex   +6.3889255E+01 +7.0786740E+01 +5.0000000E+01
      vertex   +6.5859832E+01 +6.9325261E+01 +0.0000000E+00
    endloop
  endfacet
  facet normal -5.9569930E-01 -8.0320753E-01 +0.0000000E+00
    outer loop
      vertex   +6.3889255E+01 +7.0786740E+01 +5.0000000E+01
      vertex   +6.3889255E+01 +7.0786740E+01 +0.0000000E+00
      vertex   +6.5859832E+01 +6.9325261E+01 +0.0000000E+00
    endloop
  endfacet
  facet normal -5.1410274E-01 -8.5772861E-01 +0.0000000E+00
    outer loop
      vertex   +6.3889255E+01 +7.0786740E+01 +5.0000000E+01
      vertex   +6.1784918E+01 +7.2048031E+01 +5.0000000E+01
      vertex   +6.3889255E+01 +7.0786740E+01 +0.0000000E+00
    endloop
  endfacet
  facet normal -5.1410274E-01 -8.5772861E-01 +0.0000000E+00
    outer loop
      vertex   +6.1784918E+01 +7.2048031E+01 +5.0000000E+01
      vertex   +6.1784918E+01 +7.2048031E+01 +0.0000000E+00
      vertex   +6.3889255E+01 +7.0786740E+01 +0.0000000E+00
    endloop
  endfacet
  facet normal -4.2755509E-01 -9.0398929E-01 +0.0000000E+00
    outer loop
      vertex   +6.1784918E+01 +7.2048031E+01 +5.0000000E+01
      vertex   +5.9567085E+01 +7.3096988E+01 +5.0000000E+01
      vertex   +6.1784918E+01 +7.2048031E+01 +0.0000000E+00
    endloop
  endfacet
  facet normal -4.2755509E-01 -9.0398929E-01 +0.0000000E+00
    outer loop
      vertex   +5.9567085E+01 +7.3096988E+01 +5.0000000E+01
      vertex   +5.9567085E+01 +7.3096988E+01 +0.0000000E+00
      vertex   +6.1784918E+01 +7.2048031E+01 +0.0000000E+00
    endloop
  endfacet
  facet normal -3.3688985E-01 -9.4154406E-01 +0.0000000E+00
    outer loop
      vertex   +5.9567085E+01 +7.3096988E+01 +5.0000000E+01
      vertex   +5.7257116E+01 +7.3923508E+01 +5.0000000E+01
      vertex   +5.9567085E+01 +7.3096988E+01 +0.0000000E+00
    endloop
  endfacet
  facet normal -3.3688985E-01 -9.4154406E-01 +0.0000000E+00
    outer loop
      vertex   +5.7257116E+01 +7.3923508E+01 +5.0000000E+01
      vertex   +5.7257116E+01 +7.3923508E+01 +0.0000000E+00
      vertex   +5.9567085E+01 +7.3096988E+01 +0.0000000E+00
    endloop
  endfacet
  facet normal -2.4298017E-01 -9.7003125E-01 +0.0000000E+00
    outer loop
      vertex   +5.7257116E+01 +7.3923508E+01 +5.0000000E+01
      vertex   +5.4877258E+01 +7.4519632E+01 +5.0000000E+01
      vertex   +5.7257116E+01 +7.3923508E+01 +0.0000000E+00
    endloop
  endfacet
  facet normal -2.4298017E-01 -9.7003125E-01 +0.0000000E+00
    outer loop
      vertex   +5.4877258E+01 +7.4519632E+01 +5.0000000E+01
      vertex   +5.4877258E+01 +7.4519632E+01 +0.0000000E+00
      vertex   +5.7257116E+01 +7.3923508E+01 +0.0000000E+00
    endloop
  endfacet
  facet normal -1.4673047E-01 -9.8917650E-01 +0.0000000E+00
    outer loop
      vertex   +5.4877258E+01 +7.4519632E+01 +5.0000000E+01
      vertex   +5.2450428E+01 +7.4879618E+01 +5.0000000E+01
      vertex   +5.4877258E+01 +7.4519632E+01 +0.0000000E+00
    endloop
  endfacet
  facet normal -1.4673047E-01 -9.8917650E-01 +0.0000000E+00
    outer loop
      vertex   +5.2450428E+01 +7.4879618E+01 +5.0000000E+01
      vertex   +5.2450428E+01 +7.4879618E+01 +0.0000000E+00
      vertex   +5.4877258E+01 +7.4519632E+01 +0.0000000E+00
    endloop
  endfacet
  facet normal -4.9067674E-02 -9.9879545E-01 +0.0000000E+00
    outer loop
      vertex   +5.2450428E+01 +7.4879618E+01 +5.0000000E+01
      vertex   +5.0000000E+01 +7.5000000E+01 +5.0000000E+01
      vertex   +5.2450428E+01 +7.4879618E+01 +0.0000000E+00
    endloop
  endfacet
  facet normal -4.9067674E-02 -9.9879545E-01 +0.0000000E+00
    outer loop
      vertex   +5.0000000E+01 +7.5000000E+01 +5.0000000E+01
      vertex   +5.0000000E+01 +7.5000000E+01 +0.0000000E+00
      vertex   +5.2450428E+01 +7.4879618E+01 +0.0000000E+00
    endloop
  endfacet
  facet normal +4.9067674E-02 -9.9879545E-01 +0.0000000E+00
    outer loop
      vertex   +5.0000000E+01 +7.5000000E+01 +5.0000000E+01
      vertex   +4.7549571E+01 +7.4879618E+01 +5.0000000E+01
      vertex   +5.0000000E+01 +7.5000000E+01 +0.0000000E+00
    endloop
  endfacet
  facet normal +4.9067674E-02 -9.9879545E-01 +0.0000000E+00
    outer loop
      vertex   +4.7549571E+01 +7.4879618E+01 +5.0000000E+01
      vertex   +4.7549571E+01 +7.4879618E+01 +0.0000000E+00
      vertex   +5.0000000E+01 +7.5000000E+01 +0.0000000E+00
    endloop
  endfacet
  facet normal +1.4673047E-01 -9.8917650E-01 +0.0000000E+00
    outer loop
      vertex   +4.7549571E+01 +7.4879618E+01 +5.0000000E+01
      vertex   +4.5122741E+01 +7.4519632E+01 +5.0000000E+01
      vertex   +4.7549571E+01 +7.4879618E+01 +0.0000000E+00
    endloop
  endfacet
  facet normal +1.4673047E-01 -9.8917650E-01 +0.0000000E+00
    outer loop
      vertex   +4.5122741E+01 +7.4519632E+01 +5.0000000E+01
      vertex   +4.5122741E+01 +7.4519632E+01 +0.0000000E+00
      vertex   +4.7549571E+01 +7.4879618E+01 +0.0000000E+00
    endloop
  endfacet
  facet normal +2.4298017E-01 -9.7003125E-01 +0.0000000E+00
    outer loop
      vertex   +4.5122741E+01 +7.4519632E+01 +5.0000000E+01
      vertex   +4.2742883E+01 +7.3923508E+01 +5.0000000E+01
      vertex   +4.5122741E+01 +7.4519632E+01 +0.0000000E+00
    endloop
  endfacet
  facet normal +2.4298017E-01 -9.7003125E-01 +0.0000000E+00
    outer loop
      vertex   +4.2742883E+01 +7.3923508E+01 +5.0000000E+01
      vertex   +4.2742883E+01 +7.3923508E+01 +0.0000000E+00
      vertex   +4.5122741E+01 +7.4519632E+01 +0.0000000E+00
    endloop
  endfacet
  facet normal +3.3688985E-01 -9.4154406E-01 +0.0000000E+00
    outer loop
      vertex   +4.2742883E+01 +7.3923508E+01 +5.0000000E+01
      vertex   +4.0432914E+01 +7.3096988E+01 +5.0000000E+01
      vertex   +4.2742883E+01 +7.3923508E+01 +0.0000000E+00
    endloop
  endfacet
  facet normal +3.3688985E-01 -9.4154406E-01 +0.0000000E+00
    outer loop
      vertex   +4.0432914E+01 +7.3096988E+01 +5.0000000E+01
      vertex   +4.0432914E+01 +7.3096988E+01 +0.0000000E+00
      vertex   +4.2742883E+01 +7.3923508E+01 +0.0000000E+00
    endloop
  endfacet
  facet normal +4.2755509E-01 -9.0398929E-01 +0.0000000E+00
    outer loop
      vertex   +4.0432914E+01 +7.3096988E+01 +5.0000000E+01
      vertex   +3.8215081E+01 +7.2048031E+01 +5.0000000E+01
      vertex   +4.0432914E+01 +7.3096988E+01 +0.0000000E+00
    endloop
  endfacet
  facet normal +4.2755509E-01 -9.0398929E-01 +0.0000000E+00
    outer loop
      vertex   +3.8215081E+01 +7.2048031E+01 +5.0000000E+01
      vertex   +3.8215081E+01 +7.2048031E+01 +0.0000000E+00
      vertex   +4.0432914E+01 +7.3096988E+01 +0.0000000E+00
    endloop
  endfacet
  facet normal +5.1410274E-01 -8.5772861E-01 +0.0000000E+00
    outer loop
      vertex   +3.8215081E+01 +7.2048031E+01 +5.0000000E+01
      vertex   +3.6110744E+01 +7.0786740E+01 +5.0000000E+01
      vertex   +3.8215081E+01 +7.2048031E+01 +0.0000000E+00
    endloop
  endfacet
  facet normal +5.1410274E-01 -8.5772861E-01 +0.0000000E+00
    outer loop
      vertex   +3.6110744E+01 +7.0786740E+01 +5.0000000E+01
      vertex   +3.6110744E+01 +7.0786740E+01 +0.0000000E+00
      vertex   +3.8215081E+01 +7.2048031E+01 +0.0000000E+00
    endloop
  endfacet
  facet normal +5.9569930E-01 -8.0320753E-01 +0.0000000E+00
    outer loop
      vertex   +3.6110744E+01 +7.0786740E+01 +5.0000000E+01
      vertex   +3.4140167E+01 +6.9325261E+01 +5.0000000E+01
      vertex   +3.6110744E+01 +7.0786740E+01 +0.0000000E+00
    endloop
  endfacet
  facet normal +5.9569930E-01 -8.0320753E-01 +0.0000000E+00
    outer loop
      vertex   +3.4140167E+01 +6.9325261E+01 +5.0000000E+01
      vertex   +3.4140167E+01 +6.9325261E+01 +0.0000000E+00
      vertex   +3.6110744E+01 +7.0786740E+01 +0.0000000E+00
    endloop
  endfacet
  facet normal +6.7155895E-01 -7.4095112E-01 +0.0000000E+00
    outer loop
      vertex   +3.4140167E+01 +6.9325261E+01 +5.0000000E+01
      vertex   +3.2322330E+01 +6.7677669E+01 +5.0000000E+01
      vertex   +3.4140167E+01 +6.9325261E+01 +0.0000000E+00
    endloop
  endfacet
  facet normal +6.7155895E-01 -7.4095112E-01 +0.0000000E+00
    outer loop
      vertex   +3.2322330E+01 +6.7677669E+01 +5.0000000E+01
      vertex   +3.2322330E+01 +6.7677669E+01 +0.0000000E+00
      vertex   +3.4140167E+01 +6.9325261E+01 +0.0000000E+00
    endloop
  endfacet
  facet normal +7.4095112E-01 -6.7155895E-01 +0.0000000E+00
    outer loop
      vertex   +3.2322330E+01 +6.7677669E+01 +5.0000000E+01
      vertex   +3.0674738E+01 +6.5859832E+01 +5.0000000E+01
      vertex   +3.2322330E+01 +6.7677669E+01 +0.0000000E+00
    endloop
  endfacet
  facet normal +7.4095112E-01 -6.7155895E-01 +0.0000000E+00
    outer loop
      vertex   +3.0674738E+01 +6.5859832E+01 +5.0000000E+01
      vertex   +3.0674738E+01 +6.5859832E+01 +0.0000000E+00
      vertex   +3.2322330E+01 +6.7677669E+01 +0.0000000E+00
    endloop
  endfacet
  facet normal +8.0320753E-01 -5.9569930E-01 +0.0000000E+00
    outer loop
      vertex   +3.0674738E+01 +6.5859832E+01 +5.0000000E+01
      vertex   +2.9213259E+01 +6.3889255E+01 +5.0000000E+01
      vertex   +3.0674738E+01 +6.5859832E+01 +0.0000000E+00
    endloop
  endfacet
  facet normal +8.0320753E-01 -5.9569930E-01 +0.0000000E+00
    outer loop
      vertex   +2.9213259E+01 +6.3889255E+01 +5.0000000E+01
      vertex   +2.9213259E+01 +6.3889255E+01 +0.0000000E+00
      vertex   +3.0674738E+01 +6.5859832E+01 +0.0000000E+00
    endloop
  endfacet
  facet normal +8.5772861E-01 -5.1410274E-01 +0.0000000E+00
    outer loop
      vertex   +2.9213259E+01 +6.3889255E+01 +5.0000000E+01
      vertex   +2.7951968E+01 +6.1784918E+01 +5.0000000E+01
      vertex   +2.9213259E+01 +6.3889255E+01 +0.0000000E+00
    endloop
  endfacet
  facet normal +8.5772861E-01 -5.1410274E-01 +0.0000000E+00
    outer loop
      vertex   +2.7951968E+01 +6.1784918E+01 +5.0000000E+01
      vertex   +2.7951968E+01 +6.1784918E+01 +0.0000000E+00
      vertex   +2.9213259E+01 +6.3889255E+01 +0.0000000E+00
    endloop
  endfacet
  facet normal +9.0398929E-01 -4.2755509E-01 +0.0000000E+00
    outer loop
      vertex   +2.7951968E+01 +6.1784918E+01 +5.0000000E+01
      vertex   +2.6903011E+01 +5.9567085E+01 +5.0000000E+01
      vertex   +2.7951968E+01 +6.1784918E+01 +0.0000000E+00
    endloop
  endfacet
  facet normal +9.0398929E-01 -4.2755509E-01 +0.0000000E+00
    outer loop
      vertex   +2.6903011E+01 +5.9567085E+01 +5.0000000E+01
      vertex   +2.6903011E+01 +5.9567085E+01 +0.0000000E+00
      vertex   +2.7951968E+01 +6.1784918E+01 +0.0000000E+00
    endloop
  endfacet
  facet normal +9.4154406E-01 -3.3688985E-01 +0.0000000E+00
    outer loop
      vertex   +2.6903011E+01 +5.9567085E+01 +5.0000000E+01
      vertex   +2.6076491E+01 +5.7257116E+01 +5.0000000E+01
      vertex   +2.6903011E+01 +5.9567085E+01 +0.0000000E+00
    endloop
  endfacet
  facet normal +9.4154406E-01 -3.3688985E-01 +0.0000000E+00
    outer loop
      vertex   +2.6076491E+01 +5.7257116E+01 +5.0000000E+01
      vertex   +2.6076491E+01 +5.7257116E+01 +0.0000000E+00
      vertex   +2.6903011E+01 +5.9567085E+01 +0.0000000E+00
    endloop
  endfacet
  facet normal +9.7003125E-01 -2.4298017E-01 +0.0000000E+00
    outer loop
      vertex   +2.6076491E+01 +5.7257116E+01 +5.0000000E+01
      vertex   +2.5480367E+01 +5.4877258E+01 +5.0000000E+01
      vertex   +2.6076491E+01 +5.7257116E+01 +0.0000000E+00
    endloop
  endfacet
  facet normal +9.7003125E-01 -2.4298017E-01 +0.0000000E+00
    outer loop
      vertex   +2.5480367E+01 +5.4877258E+01 +5.0000000E+01
      vertex   +2.5480367E+01 +5.4877258E+01 +0.0000000E+00
      vertex   +2.6076491E+01 +5.7257116E+01 +0.0000000E+00
    endloop
  endfacet
  facet normal +9.8917650E-01 -1.4673047E-01 +0.0000000E+00
    outer loop
      vertex   +2.5480367E+01 +5.4877258E+01 +5.0000000E+01
      vertex   +2.5120381E+01 +5.2450428E+01 +5.0000000E+01
      vertex   +2.5480367E+01 +5.4877258E+01 +0.0000000E+00
    endloop
  endfacet
  facet normal +9.8917650E-01 -1.4673047E-01 +0.0000000E+00
    outer loop
      vertex   +2.5120381E+01 +5.2450428E+01 +5.0000000E+01
      vertex   +2.5120381E+01 +5.2450428E+01 +0.0000000E+00
      vertex   +2.5480367E+01 +5.4877258E+01 +0.0000000E+00
    endloop
  endfacet
  facet normal +9.9879545E-01 -4.9067674E-02 +0.0000000E+00
    outer loop
      vertex   +2.5120381E+01 +5.2450428E+01 +5.0000000E+01
      vertex   +2.5000000E+01 +5.0000000E+01 +5.0000000E+01
      vertex   +2.5120381E+01 +5.2450428E+01 +0.0000000E+00
    endloop
  endfacet
  facet normal +9.9879545E-01 -4.9067674E-02 +0.0000000E+00
    outer loop
      vertex   +2.5000000E+01 +5.0000000E+01 +5.0000000E+01
      vertex   +2.5000000E+01 +5.0000000E+01 +0.0000000E+00
      vertex   +2.5120381E+01 +5.2450428E+01 +0.0000000E+00
    endloop
  endfacet
  facet normal -9.9879545E-01 -4.9067674E-02 +0.0000000E+00
    outer loop
      vertex   +2.5000000E+01 +5.0000000E+01 +0.0000000E+00
      vertex   +2.5120381E+01 +4.7549571E+01 +5.0000000E+01
      vertex   +2.5000000E+01 +5.0000000E+01 +5.0000000E+01
    endloop
  endfacet
  facet normal -9.9879545E-01 -4.9067674E-02 +0.0000000E+00
    outer loop
      vertex   +2.5000000E+01 +5.0000000E+01 +0.0000000E+00
      vertex   +2.5120381E+01 +4.7549571E+01 +0.0000000E+00
      vertex   +2.5120381E+01 +4.7549571E+01 +5.0000000E+01
    endloop
  endfacet
  facet normal -9.8917650E-01 -1.4673047E-01 +0.0000000E+00
    outer loop
      vertex   +2.5120381E+01 +4.7549571E+01 +0.0000000E+00
      vertex   +2.5480367E+01 +4.5122741E+01 +5.0000000E+01
      vertex   +2.5120381E+01 +4.7549571E+01 +5.0000000E+01
    endloop
  endfacet
  facet normal -9.8917650E-01 -1.4673047E-01 +0.0000000E+00
    outer loop
      vertex   +2.5120381E+01 +4.7549571E+01 +0.0000000E+00
      vertex   +2.5480367E+01 +4.5122741E+01 +0.0000000E+00
      vertex   +2.5480367E+01 +4.5122741E+01 +5.0000000E+01
    endloop
  endfacet
  facet normal -9.7003125E-01 -2.4298017E-01 +0.0000000E+00
    outer loop
      vertex   +2.5480367E+01 +4.5122741E+01 +0.0000000E+00
      vertex   +2.6076491E+01 +4.2742883E+01 +5.0000000E+01
      vertex   +2.5480367E+01 +4.5122741E+01 +5.0000000E+01
    endloop
  endfacet
  facet normal -9.7003125E-01 -2.4298017E-01 +0.0000000E+00
    outer loop
      vertex   +2.5480367E+01 +4.5122741E+01 +0.0000000E+00
      vertex   +2.6076491E+01 +4.2742883E+01 +0.0000000E+00
      vertex   +2.6076491E+01 +4.2742883E+01 +5.0000000E+01
    endloop
  endfacet
  facet normal -9.4154406E-01 -3.3688985E-01 +0.0000000E+00
    outer loop
      vertex   +2.6076491E+01 +4.2742883E+01 +0.0000000E+00
      vertex   +2.6903011E+01 +4.0432914E+01 +5.0000000E+01
      vertex   +2.6076491E+01 +4.2742883E+01 +5.0000000E+01
    endloop
  endfacet
  facet normal -9.4154406E-01 -3.3688985E-01 +0.0000000E+00
    outer loop
      vertex   +2.6076491E+01 +4.2742883E+01 +0.0000000E+00
      vertex   +2.6903011E+01 +4.0432914E+01 +0.0000000E+00
      vertex   +2.6903011E+01 +4.0432914E+01 +5.0000000E+01
    endloop
  endfacet
  facet normal -9.0398929E-01 -4.2755509E-01 +0.0000000E+00
    outer loop
      vertex   +2.6903011E+01 +4.0432914E+01 +0.0000000E+00
      vertex   +2.7951968E+01 +3.8215081E+01 +5.0000000E+01
      vertex   +2.6903011E+01 +4.0432914E+01 +5.0000000E+01
    endloop
  endfacet
  facet normal -9.0398929E-01 -4.2755509E-01 +0.0000000E+00
    outer loop
      vertex   +2.6903011E+01 +4.0432914E+01 +0.0000000E+00
      vertex   +2.7951968E+01 +3.8215081E+01 +0.0000000E+00
      vertex   +2.7951968E+01 +3.8215081E+01 +5.0000000E+01
    endloop
  endfacet
  facet normal -8.5772861E-01 -5.1410274E-01 +0.0000000E+00
    outer loop
      vertex   +2.7951968E+01 +3.8215081E+01 +0.0000000E+00
      vertex   +2.9213259E+01 +3.6110744E+01 +5.0000000E+01
      vertex   +2.7951968E+01 +3.8215081E+01 +5.0000000E+01
    endloop
  endfacet
  facet normal -8.5772861E-01 -5.1410274E-01 +0.0000000E+00
    outer loop
      vertex   +2.7951968E+01 +3.8215081E+01 +0.0000000E+00
      vertex   +2.9213259E+01 +3.6110744E+01 +0.0000000E+00
      vertex   +2.9213259E+01 +3.6110744E+01 +5.0000000E+01
    endloop
  endfacet
  facet normal -8.0320753E-01 -5.9569930E-01 +0.0000000E+00
    outer loop
      vertex   +2.9213259E+01 +3.6110744E+01 +0.0000000E+00
      vertex   +3.0674738E+01 +3.4140167E+01 +5.0000000E+01
      vertex   +2.9213259E+01 +3.6110744E+01 +5.0000000E+01
    endloop
  endfacet
  facet normal -8.0320753E-01 -5.9569930E-01 +0.0000000E+00
    outer loop
      vertex   +2.9213259E+01 +3.6110744E+01 +0.0000000E+00
      vertex   +3.0674738E+01 +3.4140167E+01 +0.0000000E+00
      vertex   +3.0674738E+01 +3.4140167E+01 +5.0000000E+01
    endloop
  endfacet
  facet normal -7.4095112E-01 -6.7155895E-01 +0.0000000E+00
    outer loop
      vertex   +3.0674738E+01 +3.4140167E+01 +0.0000000E+00
      vertex   +3.2322330E+01 +3.2322330E+01 +5.0000000E+01
      vertex   +3.0674738E+01 +3.4140167E+01 +5.0000000E+01
    endloop
  endfacet
  facet normal -7.4095112E-01 -6.7155895E-01 +0.0000000E+00
    outer loop
      vertex   +3.0674738E+01 +3.4140167E+01 +0.0000000E+00
      vertex   +3.2322330E+01 +3.2322330E+01 +0.0000000E+00
      vertex   +3.2322330E+01 +3.2322330E+01 +5.0000000E+01
    endloop
  endfacet
  facet normal -6.7155895E-01 -7.4095112E-01 +0.0000000E+00
    outer loop
      vertex   +3.2322330E+01 +3.2322330E+01 +0.0000000E+00
      vertex   +3.4140167E+01 +3.0674738E+01 +5.0000000E+01
      vertex   +3.2322330E+01 +3.2322330E+01 +5.0000000E+01
    endloop
  endfacet
  facet normal -6.7155895E-01 -7.4095112E-01 +0.0000000E+00
    outer loop
      vertex   +3.2322330E+01 +3.2322330E+01 +0.0000000E+00
      vertex   +3.4140167E+01 +3.0674738E+01 +0.0000000E+00
      vertex   +3.4140167E+01 +3.0674738E+01 +5.0000000E+01
    endloop
  endfacet
  facet normal -5.9569930E-01 -8.0320753E-01 +0.0000000E+00
    outer loop
      vertex   +3.4140167E+01 +3.0674738E+01 +0.0000000E+00
      vertex   +3.6110744E+01 +2.9213259E+01 +5.0000000E+01
      vertex   +3.4140167E+01 +3.0674738E+01 +5.0000000E+01
    endloop
  endfacet
  facet normal -5.9569930E-01 -8.0320753E-01 +0.0000000E+00
    outer loop
      vertex   +3.4140167E+01 +3.0674738E+01 +0.0000000E+00
      vertex   +3.6110744E+01 +2.9213259E+01 +0.0000000E+00
      vertex   +3.6110744E+01 +2.9213259E+01 +5.0000000E+01
    endloop
  endfacet
  facet normal -5.1410274E-01 -8.5772861E-01 +0.0000000E+00
    outer loop
      vertex   +3.6110744E+01 +2.9213259E+01 +0.0000000E+00
      vertex   +3.8215081E+01 +2.7951968E+01 +5.0000000E+01
      vertex   +3.6110744E+01 +2.9213259E+01 +5.0000000E+01
    endloop
  endfacet
  facet normal -5.1410274E-01 -8.5772861E-01 +0.0000000E+00
    outer loop
      vertex   +3.6110744E+01 +2.9213259E+01 +0.0000000E+00
      vertex   +3.8215081E+01 +2.7951968E+01 +0.0000000E+00
      vertex   +3.8215081E+01 +2.7951968E+01 +5.0000000E+01
    endloop
  endfacet
  facet normal -4.2755509E-01 -9.0398929E-01 +0.0000000E+00
    outer loop
      vertex   +3.8215081E+01 +2.7951968E+01 +0.0000000E+00
      vertex   +4.0432914E+01 +2.6903011E+01 +5.0000000E+01
      vertex   +3.8215081E+01 +2.7951968E+01 +5.0000000E+01
    endloop
  endfacet
  facet normal -4.2755509E-01 -9.0398929E-01 +0.0000000E+00
    outer loop
      vertex   +3.8215081E+01 +2.7951968E+01 +0.0000000E+00
      vertex   +4.0432914E+01 +2.6903011E+01 +0.0000000E+00
      vertex   +4.0432914E+01 +2.6903011E+01 +5.0000000E+01
    endloop
  endfacet
  facet normal -3.3688985E-01 -9.4154406E-01 +0.0000000E+00
    outer loop
      vertex   +4.0432914E+01 +2.6903011E+01 +0.0000000E+00
      vertex   +4.2742883E+01 +2.6076491E+01 +5.0000000E+01
      vertex   +4.0432914E+01 +2.6903011E+01 +5.0000000E+01
    endloop
  endfacet
  facet normal -3.3688985E-01 -9.4154406E-01 +0.0000000E+00
    outer loop
      vertex   +4.0432914E+01 +2.6903011E+01 +0.0000000E+00
      vertex   +4.2742883E+01 +2.6076491E+01 +0.0000000E+00
      vertex   +4.2742883E+01 +2.6076491E+01 +5.0000000E+01
    endloop
  endfacet
  facet normal -2.4298017E-01 -9.7003125E-01 +0.0000000E+00
    outer loop
      vertex   +4.2742883E+01 +2.6076491E+01 +0.0000000E+00
      vertex   +4.5122741E+01 +2.5480367E+01 +5.0000000E+01
      vertex   +4.2742883E+01 +2.6076491E+01 +5.0000000E+01
    endloop
  endfacet
  facet normal -2.4298017E-01 -9.7003125E-01 +0.0000000E+00
    outer loop
      vertex   +4.2742883E+01 +2.6076491E+01 +0.0000000E+00
      vertex   +4.5122741E+01 +2.5480367E+01 +0.0000000E+00
      vertex   +4.5122741E+01 +2.5480367E+01 +5.0000000E+01
    endloop
  endfacet
  facet normal -1.4673047E-01 -9.8917650E-01 +0.0000000E+00
    outer loop
      vertex   +4.5122741E+01 +2.5480367E+01 +0.0000000E+00
      vertex   +4.7549571E+01 +2.5120381E+01 +5.0000000E+01
      vertex   +4.5122741E+01 +2.5480367E+01 +5.0000000E+01
    endloop
  endfacet
  facet normal -1.4673047E-01 -9.8917650E-01 +0.0000000E+00
    outer loop
      vertex   +4.5122741E+01 +2.5480367E+01 +0.0000000E+00
      vertex   +4.7549571E+01 +2.5120381E+01 +0.0000000E+00
      vertex   +4.7549571E+01 +2.5120381E+01 +5.0000000E+01
    endloop
  endfacet
  facet normal -4.9067674E-02 -9.9879545E-01 +0.0000000E+00
    outer loop
      vertex   +4.7549571E+01 +2.5120381E+01 +0.0000000E+00
      vertex   +5.0000000E+01 +2.5000000E+01 +5.0000000E+01
      vertex   +4.7549571E+01 +2.5120381E+01 +5.0000000E+01
    endloop
  endfacet
  facet normal -4.9067674E-02 -9.9879545E-01 +0.0000000E+00
    outer loop
      vertex   +4.7549571E+01 +2.5120381E+01 +0.0000000E+00
      vertex   +5.0000000E+01 +2.5000000E+01 +0.0000000E+00
      vertex   +5.0000000E+01 +2.5000000E+01 +5.0000000E+01
    endloop
  endfacet
  facet normal +4.9067674E-02 -9.9879545E-01 +0.0000000E+00
    outer loop
      vertex   +5.0000000E+01 +2.5000000E+01 +0.0000000E+00
      vertex   +5.2450428E+01 +2.5120381E+01 +5.0000000E+01
      vertex   +5.0000000E+01 +2.5000000E+01 +5.0000000E+01
    endloop
  endfacet
  facet normal +4.9067674E-02 -9.9879545E-01 +0.0000000E+00
    outer loop
      vertex   +5.0000000E+01 +2.5000000E+01 +0.0000000E+00
      vertex   +5.2450428E+01 +2.5120381E+01 +0.0000000E+00
      vertex   +5.2450428E+01 +2.5120381E+01 +5.0000000E+01
    endloop
  endfacet
  facet normal +1.4673047E-01 -9.8917650E-01 +0.0000000E+00
    outer loop
      vertex   +5.2450428E+01 +2.5120381E+01 +0.0000000E+00
      vertex   +5.4877258E+01 +2.5480367E+01 +5.0000000E+01
      vertex   +5.2450428E+01 +2.5120381E+01 +5.0000000E+01
    endloop
  endfacet
  facet normal +1.4673047E-01 -9.8917650E-01 +0.0000000E+00
    outer loop
      vertex   +5.2450428E+01 +2.5120381E+01 +0.0000000E+00
      vertex   +5.4877258E+01 +2.5480367E+01 +0.0000000E+00
      vertex   +5.4877258E+01 +2.5480367E+01 +5.0000000E+01
    endloop
  endfacet
  facet normal +2.4298017E-01 -9.7003125E-01 +0.0000000E+00
    outer loop
      vertex   +5.4877258E+01 +2.5480367E+01 +0.0000000E+00
      vertex   +5.7257116E+01 +2.6076491E+01 +5.0000000E+01
      vertex   +5.4877258E+01 +2.5480367E+01 +5.0000000E+01
    endloop
  endfacet
  facet normal +2.4298017E-01 -9.7003125E-01 +0.0000000E+00
    outer loop
      vertex   +5.4877258E+01 +2.5480367E+01 +0.0000000E+00
      vertex   +5.7257116E+01 +2.6076491E+01 +0.0000000E+00
      vertex   +5.7257116E+01 +2.6076491E+01 +5.0000000E+01
    endloop
  endfacet
  facet normal +3.3688985E-01 -9.4154406E-01 +0.0000000E+00
    outer loop
      vertex   +5.7257116E+01 +2.6076491E+01 +0.0000000E+00
      vertex   +5.9567085E+01 +2.6903011E+01 +5.0000000E+01
      vertex   +5.7257116E+01 +2.6076491E+01 +5.0000000E+01
    endloop
  endfacet
  facet normal +3.3688985E-01 -9.4154406E-01 +0.0000000E+00
    outer loop
      vertex   +5.7257116E+01 +2.6076491E+01 +0.0000000E+00
      vertex   +5.9567085E+01 +2.6903011E+01 +0.0000000E+00
      vertex   +5.9567085E+01 +2.6903011E+01 +5.0000000E+01
    endloop
  endfacet
  facet normal +4.2755509E-01 -9.0398929E-01 +0.0000000E+00
    outer loop
      vertex   +5.9567085E+01 +2.6903011E+01 +0.0000000E+00
      vertex   +6.1784918E+01 +2.7951968E+01 +5.0000000E+01
      vertex   +5.9567085E+01 +2.6903011E+01 +5.0000000E+01
    endloop
  endfacet
  facet normal +4.2755509E-01 -9.0398929E-01 +0.0000000E+00
    outer loop
      vertex   +5.9567085E+01 +2.6903011E+01 +0.0000000E+00
      vertex   +6.1784918E+01 +2.7951968E+01 +0.0000000E+00
      vertex   +6.1784918E+01 +2.7951968E+01 +5.0000000E+01
    endloop
  endfacet
  facet normal +5.1410274E-01 -8.5772861E-01 +0.0000000E+00
    outer loop
      vertex   +6.1784918E+01 +2.7951968E+01 +0.0000000E+00
      vertex   +6.3889255E+01 +2.9213259E+01 +5.0000000E+01
      vertex   +6.1784918E+01 +2.7951968E+01 +5.0000000E+01
    endloop
  endfacet
  facet normal +5.1410274E-01 -8.5772861E-01 +0.0000000E+00
    outer loop
      vertex   +6.1784918E+01 +2.7951968E+01 +0.0000000E+00
      vertex   +6.3889255E+01 +2.9213259E+01 +0.0000000E+00
      vertex   +6.3889255E+01 +2.9213259E+01 +5.0000000E+01
    endloop
  endfacet
  facet normal +5.9569930E-01 -8.0320753E-01 +0.0000000E+00
    outer loop
      vertex   +6.3889255E+01 +2.9213259E+01 +0.0000000E+00
      vertex   +6.5859832E+01 +3.0674738E+01 +5.0000000E+01
      vertex   +6.3889255E+01 +2.9213259E+01 +5.0000000E+01
    endloop
  endfacet
  facet normal +5.9569930E-01 -8.0320753E-01 +0.0000000E+00
    outer loop
      vertex   +6.3889255E+01 +2.9213259E+01 +0.0000000E+00
      vertex   +6.5859832E+01 +3.0674738E+01 +0.0000000E+00
      vertex   +6.5859832E+01 +3.0674738E+01 +5.0000000E+01
    endloop
  endfacet
  facet normal +6.7155895E-01 -7.4095112E-01 +0.0000000E+00
    outer loop
      vertex   +6.5859832E+01 +3.0674738E+01 +0.0000000E+00
      vertex   +6.7677669E+01 +3.2322330E+01 +5.0000000E+01
      vertex   +6.5859832E+01 +3.0674738E+01 +5.0000000E+01
    endloop
  endfacet
  facet normal +6.7155895E-01 -7.4095112E-01 +0.0000000E+00
    outer loop
      vertex   +6.5859832E+01 +3.0674738E+01 +0.0000000E+00
      vertex   +6.7677669E+01 +3.2322330E+01 +0.0000000E+00
      vertex   +6.7677669E+01 +3.2322330E+01 +5.0000000E+01
    endloop
  endfacet
  facet normal +7.4095112E-01 -6.7155895E-01 +0.0000000E+00
    outer loop
      vertex   +6.7677669E+01 +3.2322330E+01 +0.0000000E+00
      vertex   +6.9325261E+01 +3.4140167E+01 +5.0000000E+01
      vertex   +6.7677669E+01 +3.2322330E+01 +5.0000000E+01
    endloop
  endfacet
  facet normal +7.4095112E-01 -6.7155895E-01 +0.0000000E+00
    outer loop
      vertex   +6.7677669E+01 +3.2322330E+01 +0.0000000E+00
      vertex   +6.9325261E+01 +3.4140167E+01 +0.0000000E+00
      vertex   +6.9325261E+01 +3.4140167E+01 +5.0000000E+01
    endloop
  endfacet
  facet normal +8.0320753E-01 -5.9569930E-01 +0.0000000E+00
    outer loop
      vertex   +6.9325261E+01 +3.4140167E+01 +0.0000000E+00
      vertex   +7.0786740E+01 +3.6110744E+01 +5.0000000E+01
      vertex   +6.9325261E+01 +3.4140167E+01 +5.0000000E+01
    endloop
  endfacet
  facet normal +8.0320753E-01 -5.9569930E-01 +0.0000000E+00
    outer loop
      vertex   +6.9325261E+01 +3.4140167E+01 +0.0000000E+00
      vertex   +7.0786740E+01 +3.6110744E+01 +0.0000000E+00
      vertex   +7.0786740E+01 +3.6110744E+01 +5.0000000E+01
    endloop
  endfacet
  facet normal +8.5772861E-01 -5.1410274E-01 +0.0000000E+00
    outer loop
      vertex   +7.0786740E+01 +3.6110744E+01 +0.0000000E+00
      vertex   +7.2048031E+01 +3.8215081E+01 +5.0000000E+01
      vertex   +7.0786740E+01 +3.6110744E+01 +5.0000000E+01
    endloop
  endfacet
  facet normal +8.5772861E-01 -5.1410274E-01 +0.0000000E+00
    outer loop
      vertex   +7.0786740E+01 +3.6110744E+01 +0.0000000E+00
      vertex   +7.2048031E+01 +3.8215081E+01 +0.0000000E+00
      vertex   +7.2048031E+01 +3.8215081E+01 +5.0000000E+01
    endloop
  endfacet
  facet normal +9.0398929E-01 -4.2755509E-01 +0.0000000E+00
    outer loop
      vertex   +7.2048031E+01 +3.8215081E+01 +0.0000000E+00
      vertex   +7.3096988E+01 +4.0432914E+01 +5.0000000E+01
      vertex   +7.2048031E+01 +3.8215081E+01 +5.0000000E+01
    endloop
  endfacet
  facet normal +9.0398929E-01 -4.2755509E-01 +0.0000000E+00
    outer loop
      vertex   +7.2048031E+01 +3.8215081E+01 +0.0000000E+00
      vertex   +7.3096988E+01 +4.0432914E+01 +0.0000000E+00
      vertex   +7.3096988E+01 +4.0432914E+01 +5.0000000E+01
    endloop
  endfacet
  facet normal +9.4154406E-01 -3.3688985E-01 +0.0000000E+00
    outer loop
      vertex   +7.3096988E+01 +4.0432914E+01 +0.0000000E+00
      vertex   +7.3923508E+01 +4.2742883E+01 +5.0000000E+01
      vertex   +7.3096988E+01 +4.0432914E+01 +5.0000000E+01
    endloop
  endfacet
  facet normal +9.4154406E-01 -3.3688985E-01 +0.0000000E+00
    outer loop
      vertex   +7.3096988E+01 +4.0432914E+01 +0.0000000E+00
      vertex   +7.3923508E+01 +4.2742883E+01 +0.0000000E+00
      vertex   +7.3923508E+01 +4.2742883E+01 +5.0000000E+01
    endloop
  endfacet
  facet normal +9.7003125E-01 -2.4298017E-01 +0.0000000E+00
    outer loop
      vertex   +7.3923508E+01 +4.2742883E+01 +0.0000000E+00
      vertex   +7.4519632E+01 +4.5122741E+01 +5.0000000E+01
      vertex   +7.3923508E+01 +4.2742883E+01 +5.0000000E+01
    endloop
  endfacet
  facet normal +9.7003125E-01 -2.4298017E-01 +0.0000000E+00
    outer loop
      vertex   +7.3923508E+01 +4.2742883E+01 +0.0000000E+00
      vertex   +7.4519632E+01 +4.5122741E+01 +0.0000000E+00
      vertex   +7.4519632E+01 +4.5122741E+01 +5.0000000E+01
    endloop
  endfacet
  facet normal +9.8917650E-01 -1.4673047E-01 +0.0000000E+00
    outer loop
      vertex   +7.4519632E+01 +4.5122741E+01 +0.0000000E+00
      vertex   +7.4879618E+01 +4.7549571E+01 +5.0000000E+01
      vertex   +7.4519632E+01 +4.5122741E+01 +5.0000000E+01
    endloop
  endfacet
  facet normal +9.8917650E-01 -1.4673047E-01 +0.0000000E+00
    outer loop
      vertex   +7.4519632E+01 +4.5122741E+01 +0.0000000E+00
      vertex   +7.4879618E+01 +4.7549571E+01 +0.0000000E+00
      vertex   +7.4879618E+01 +4.7549571E+01 +5.0000000E+01
    endloop
  endfacet
  facet normal +9.9879545E-01 -4.9067674E-02 +0.0000000E+00
    outer loop
      vertex   +7.4879618E+01 +4.7549571E+01 +0.0000000E+00
      vertex   +7.5000000E+01 +5.0000000E+01 +5.0000000E+01
      vertex   +7.4879618E+01 +4.7549571E+01 +5.0000000E+01
    endloop
  endfacet
  facet normal +9.9879545E-01 -4.9067674E-02 +0.0000000E+00
    outer loop
      vertex   +7.4879618E+01 +4.7549571E+01 +0.0000000E+00
      vertex   +7.5000000E+01 +5.0000000E+01 +0.0000000E+00
      vertex   +7.5000000E+01 +5.0000000E+01 +5.0000000E+01
    endloop
  endfacet
endsolid
